<svg xmlns="http://www.w3.org/2000/svg" xmlns:xlink="http://www.w3.org/1999/xlink" width="75" zoomAndPan="magnify" viewBox="0 0 56.25 56.249997" height="75" preserveAspectRatio="xMidYMid meet" version="1.0"><defs><filter x="0%" y="0%" width="100%" height="100%" id="ebc5ed06a9"><feColorMatrix values="0 0 0 0 1 0 0 0 0 1 0 0 0 0 1 0 0 0 1 0" color-interpolation-filters="sRGB"/></filter><clipPath id="1edec42419"><path d="M 3.886719 6 L 43 6 L 43 22 L 3.886719 22 Z M 3.886719 6 " clip-rule="nonzero"/></clipPath><mask id="59d1ac22f5"><g filter="url(#ebc5ed06a9)"><rect x="-5.625" width="67.5" fill="#000000" y="-5.625" height="67.499996" fill-opacity="0.25"/></g></mask><clipPath id="397b11890b"><path d="M 0.34375 1 L 7 1 L 7 6.867188 L 0.34375 6.867188 Z M 0.34375 1 " clip-rule="nonzero"/></clipPath><clipPath id="d0eadd6533"><path d="M 9 1 L 29.710938 1 L 29.710938 4 L 9 4 Z M 9 1 " clip-rule="nonzero"/></clipPath><clipPath id="378d035b34"><path d="M 9 4 L 29.710938 4 L 29.710938 6.867188 L 9 6.867188 Z M 9 4 " clip-rule="nonzero"/></clipPath><clipPath id="85eacdb6c7"><rect x="0" width="30" y="0" height="7"/></clipPath><clipPath id="f2633ac065"><path d="M 3.886719 34 L 43 34 L 43 49 L 3.886719 49 Z M 3.886719 34 " clip-rule="nonzero"/></clipPath><clipPath id="5f7af40097"><path d="M 3.886719 33 L 43 33 L 43 49 L 3.886719 49 Z M 3.886719 33 " clip-rule="nonzero"/></clipPath><mask id="b505934ef0"><g filter="url(#ebc5ed06a9)"><rect x="-5.625" width="67.5" fill="#000000" y="-5.625" height="67.499996" fill-opacity="0.25"/></g></mask><clipPath id="65bb3e79fb"><path d="M 0.34375 1 L 7 1 L 7 6.867188 L 0.34375 6.867188 Z M 0.34375 1 " clip-rule="nonzero"/></clipPath><clipPath id="1560001b74"><path d="M 9 1 L 29.710938 1 L 29.710938 4 L 9 4 Z M 9 1 " clip-rule="nonzero"/></clipPath><clipPath id="5a0695e248"><path d="M 9 4 L 29.710938 4 L 29.710938 6.867188 L 9 6.867188 Z M 9 4 " clip-rule="nonzero"/></clipPath><clipPath id="30eceeb222"><rect x="0" width="30" y="0" height="7"/></clipPath><clipPath id="2c7012adac"><path d="M 12 20 L 51.253906 20 L 51.253906 35 L 12 35 Z M 12 20 " clip-rule="nonzero"/></clipPath><mask id="11006266a7"><g filter="url(#ebc5ed06a9)"><rect x="-5.625" width="67.5" fill="#000000" y="-5.625" height="67.499996" fill-opacity="0.5"/></g></mask><clipPath id="886e60e46a"><path d="M 0.238281 1 L 20.605469 1 L 20.605469 3 L 0.238281 3 Z M 0.238281 1 " clip-rule="nonzero"/></clipPath><clipPath id="87e4e170f4"><path d="M 0.238281 4 L 20.605469 4 L 20.605469 5.65625 L 0.238281 5.65625 Z M 0.238281 4 " clip-rule="nonzero"/></clipPath><clipPath id="939cc62afb"><rect x="0" width="21" y="0" height="6"/></clipPath><mask id="3d32b9b203"><g filter="url(#ebc5ed06a9)"><rect x="-5.625" width="67.5" fill="#000000" y="-5.625" height="67.499996" fill-opacity="0.25"/></g></mask><clipPath id="314dc3881e"><path d="M 0.5 0.0273438 L 8.789062 0.0273438 L 8.789062 8.316406 L 0.5 8.316406 Z M 0.5 0.0273438 " clip-rule="nonzero"/></clipPath><clipPath id="a2367e891e"><rect x="0" width="9" y="0" height="9"/></clipPath><clipPath id="16f8fe970a"><path d="M 5 42 L 50 42 L 50 52.960938 L 5 52.960938 Z M 5 42 " clip-rule="nonzero"/></clipPath><clipPath id="719178e326"><path d="M 5 2.628906 L 50 2.628906 L 50 13 L 5 13 Z M 5 2.628906 " clip-rule="nonzero"/></clipPath></defs><g clip-path="url(#1edec42419)"><path fill="#b1bec6" d="M 36.394531 6.988281 L 9.945312 6.988281 C 8.304688 6.988281 6.816406 7.660156 5.738281 8.746094 C 4.660156 9.832031 3.996094 11.332031 3.996094 12.992188 C 3.996094 16.308594 6.660156 19 9.945312 19 L 11.113281 19 L 10.664062 20.863281 C 10.546875 21.34375 11.039062 21.742188 11.476562 21.523438 L 15.78125 19 L 36.394531 19 C 38.035156 19 39.523438 18.328125 40.601562 17.238281 C 41.679688 16.152344 42.34375 14.652344 42.34375 12.992188 C 42.34375 9.675781 39.679688 6.988281 36.394531 6.988281 Z M 10.292969 15.777344 C 8.722656 15.777344 7.449219 14.492188 7.449219 12.910156 C 7.449219 11.324219 8.722656 10.039062 10.292969 10.039062 C 11.863281 10.039062 13.136719 11.324219 13.136719 12.910156 C 13.136719 14.492188 11.863281 15.777344 10.292969 15.777344 Z M 36.453125 14.839844 C 36.328125 14.964844 36.15625 15.042969 35.964844 15.042969 L 17.484375 15.042969 C 17.101562 15.042969 16.792969 14.730469 16.792969 14.34375 C 16.792969 14.152344 16.871094 13.976562 16.992188 13.851562 C 17.121094 13.726562 17.292969 13.648438 17.484375 13.648438 L 35.964844 13.648438 C 36.347656 13.648438 36.65625 13.960938 36.65625 14.34375 C 36.65625 14.539062 36.578125 14.710938 36.453125 14.839844 Z M 36.453125 11.964844 C 36.328125 12.09375 36.15625 12.171875 35.964844 12.171875 L 17.484375 12.171875 C 17.101562 12.171875 16.792969 11.859375 16.792969 11.472656 C 16.792969 11.28125 16.871094 11.105469 16.992188 10.980469 C 17.121094 10.855469 17.292969 10.777344 17.484375 10.777344 L 35.964844 10.777344 C 36.347656 10.777344 36.65625 11.089844 36.65625 11.472656 C 36.65625 11.664062 36.578125 11.839844 36.453125 11.964844 Z M 36.453125 11.964844 " fill-opacity="0.5" fill-rule="nonzero"/><path fill="#b1bec6" d="M 11.222656 21.691406 C 11.070312 21.691406 10.921875 21.640625 10.796875 21.539062 C 10.589844 21.367188 10.5 21.101562 10.5625 20.839844 L 10.980469 19.105469 L 9.945312 19.105469 C 6.605469 19.105469 3.890625 16.363281 3.890625 12.992188 C 3.890625 11.359375 4.519531 9.824219 5.664062 8.671875 C 6.808594 7.515625 8.328125 6.878906 9.945312 6.878906 L 36.394531 6.878906 C 39.734375 6.878906 42.449219 9.621094 42.449219 12.992188 C 42.449219 14.625 41.820312 16.160156 40.675781 17.316406 C 39.53125 18.46875 38.011719 19.105469 36.394531 19.105469 L 15.808594 19.105469 L 11.527344 21.621094 C 11.429688 21.667969 11.324219 21.691406 11.222656 21.691406 Z M 9.945312 7.09375 C 8.386719 7.09375 6.917969 7.707031 5.8125 8.820312 C 4.710938 9.933594 4.101562 11.414062 4.101562 12.992188 C 4.101562 16.246094 6.722656 18.890625 9.945312 18.890625 L 11.25 18.890625 L 10.765625 20.886719 C 10.722656 21.070312 10.785156 21.253906 10.929688 21.371094 C 11.074219 21.488281 11.261719 21.511719 11.429688 21.429688 L 15.75 18.890625 L 36.394531 18.890625 C 37.953125 18.890625 39.421875 18.277344 40.527344 17.164062 C 41.628906 16.050781 42.238281 14.566406 42.238281 12.992188 C 42.238281 9.738281 39.617188 7.09375 36.394531 7.09375 Z M 9.945312 7.09375 " fill-opacity="1" fill-rule="nonzero"/></g><g mask="url(#59d1ac22f5)"><g transform="matrix(1, 0, 0, 1, 7, 9)"><g clip-path="url(#85eacdb6c7)"><g clip-path="url(#397b11890b)"><path fill="#b1bec6" d="M 6.136719 3.910156 C 6.136719 5.492188 4.863281 6.777344 3.292969 6.777344 C 1.722656 6.777344 0.449219 5.492188 0.449219 3.910156 C 0.449219 2.324219 1.722656 1.039062 3.292969 1.039062 C 4.863281 1.039062 6.136719 2.324219 6.136719 3.910156 Z M 6.136719 3.910156 " fill-opacity="1" fill-rule="nonzero"/></g><g clip-path="url(#d0eadd6533)"><path fill="#b1bec6" d="M 29.65625 2.472656 C 29.65625 2.664062 29.578125 2.839844 29.453125 2.964844 C 29.328125 3.09375 29.15625 3.171875 28.964844 3.171875 L 10.484375 3.171875 C 10.101562 3.171875 9.792969 2.859375 9.792969 2.472656 C 9.792969 2.28125 9.871094 2.105469 9.992188 1.980469 C 10.121094 1.855469 10.292969 1.777344 10.484375 1.777344 L 28.964844 1.777344 C 29.347656 1.777344 29.65625 2.089844 29.65625 2.472656 Z M 29.65625 2.472656 " fill-opacity="1" fill-rule="nonzero"/></g><g clip-path="url(#378d035b34)"><path fill="#b1bec6" d="M 29.65625 5.34375 C 29.65625 5.539062 29.578125 5.710938 29.453125 5.839844 C 29.328125 5.964844 29.15625 6.042969 28.964844 6.042969 L 10.484375 6.042969 C 10.101562 6.042969 9.792969 5.730469 9.792969 5.34375 C 9.792969 5.152344 9.871094 4.976562 9.992188 4.851562 C 10.121094 4.726562 10.292969 4.648438 10.484375 4.648438 L 28.964844 4.648438 C 29.347656 4.648438 29.65625 4.960938 29.65625 5.34375 Z M 29.65625 5.34375 " fill-opacity="1" fill-rule="nonzero"/></g></g></g></g><path fill="#b1bec6" d="M 10.292969 15.886719 C 8.664062 15.886719 7.34375 14.550781 7.34375 12.910156 C 7.34375 11.265625 8.664062 9.933594 10.292969 9.933594 C 11.917969 9.933594 13.242188 11.265625 13.242188 12.910156 C 13.242188 14.550781 11.917969 15.886719 10.292969 15.886719 Z M 10.292969 10.144531 C 8.78125 10.144531 7.554688 11.386719 7.554688 12.910156 C 7.554688 14.433594 8.78125 15.671875 10.292969 15.671875 C 11.800781 15.671875 13.03125 14.433594 13.03125 12.910156 C 13.03125 11.386719 11.800781 10.144531 10.292969 10.144531 Z M 10.292969 10.144531 " fill-opacity="1" fill-rule="nonzero"/><path fill="#b1bec6" d="M 35.964844 12.277344 L 17.484375 12.277344 C 17.042969 12.277344 16.6875 11.917969 16.6875 11.472656 C 16.6875 11.257812 16.769531 11.058594 16.917969 10.90625 C 17.070312 10.753906 17.269531 10.667969 17.484375 10.667969 L 35.964844 10.667969 C 36.40625 10.667969 36.761719 11.03125 36.761719 11.472656 C 36.761719 11.6875 36.679688 11.890625 36.53125 12.042969 C 36.378906 12.195312 36.179688 12.277344 35.964844 12.277344 Z M 17.484375 10.882812 C 17.328125 10.882812 17.179688 10.945312 17.070312 11.054688 C 16.957031 11.167969 16.898438 11.316406 16.898438 11.472656 C 16.898438 11.800781 17.160156 12.0625 17.484375 12.0625 L 35.964844 12.0625 C 36.121094 12.0625 36.269531 12 36.378906 11.890625 C 36.492188 11.777344 36.550781 11.632812 36.550781 11.472656 C 36.550781 11.148438 36.289062 10.882812 35.964844 10.882812 Z M 17.484375 10.882812 " fill-opacity="1" fill-rule="nonzero"/><path fill="#b1bec6" d="M 35.964844 15.148438 L 17.484375 15.148438 C 17.042969 15.148438 16.6875 14.789062 16.6875 14.34375 C 16.6875 14.128906 16.769531 13.929688 16.917969 13.777344 C 17.070312 13.625 17.269531 13.539062 17.484375 13.539062 L 35.964844 13.539062 C 36.40625 13.539062 36.761719 13.902344 36.761719 14.34375 C 36.761719 14.558594 36.679688 14.761719 36.53125 14.914062 C 36.378906 15.066406 36.179688 15.148438 35.964844 15.148438 Z M 17.484375 13.753906 C 17.328125 13.753906 17.179688 13.816406 17.070312 13.925781 C 16.957031 14.039062 16.898438 14.1875 16.898438 14.34375 C 16.898438 14.671875 17.160156 14.933594 17.484375 14.933594 L 35.964844 14.933594 C 36.121094 14.933594 36.269531 14.875 36.378906 14.761719 C 36.492188 14.652344 36.550781 14.503906 36.550781 14.34375 C 36.550781 14.019531 36.289062 13.753906 35.964844 13.753906 Z M 17.484375 13.753906 " fill-opacity="1" fill-rule="nonzero"/><g clip-path="url(#f2633ac065)"><path fill="#b1bec6" d="M 36.394531 34 L 9.945312 34 C 8.304688 34 6.816406 34.671875 5.738281 35.757812 C 4.660156 36.84375 3.996094 38.347656 3.996094 40.003906 C 3.996094 43.320312 6.660156 46.011719 9.945312 46.011719 L 11.113281 46.011719 L 10.664062 47.875 C 10.546875 48.355469 11.039062 48.753906 11.476562 48.535156 L 15.78125 46.011719 L 36.394531 46.011719 C 38.035156 46.011719 39.523438 45.339844 40.601562 44.25 C 41.679688 43.164062 42.34375 41.664062 42.34375 40.003906 C 42.34375 36.6875 39.679688 34 36.394531 34 Z M 10.292969 42.792969 C 8.722656 42.792969 7.449219 41.507812 7.449219 39.921875 C 7.449219 38.335938 8.722656 37.050781 10.292969 37.050781 C 11.863281 37.050781 13.136719 38.335938 13.136719 39.921875 C 13.136719 41.507812 11.863281 42.792969 10.292969 42.792969 Z M 36.453125 41.851562 C 36.328125 41.976562 36.15625 42.054688 35.964844 42.054688 L 17.484375 42.054688 C 17.101562 42.054688 16.792969 41.742188 16.792969 41.355469 C 16.792969 41.164062 16.871094 40.988281 16.992188 40.863281 C 17.121094 40.738281 17.292969 40.660156 17.484375 40.660156 L 35.964844 40.660156 C 36.347656 40.660156 36.65625 40.972656 36.65625 41.355469 C 36.65625 41.550781 36.578125 41.722656 36.453125 41.851562 Z M 36.453125 38.980469 C 36.328125 39.105469 36.15625 39.183594 35.964844 39.183594 L 17.484375 39.183594 C 17.101562 39.183594 16.792969 38.871094 16.792969 38.484375 C 16.792969 38.292969 16.871094 38.117188 16.992188 37.992188 C 17.121094 37.867188 17.292969 37.789062 17.484375 37.789062 L 35.964844 37.789062 C 36.347656 37.789062 36.65625 38.101562 36.65625 38.484375 C 36.65625 38.679688 36.578125 38.851562 36.453125 38.980469 Z M 36.453125 38.980469 " fill-opacity="0.5" fill-rule="nonzero"/></g><g clip-path="url(#5f7af40097)"><path fill="#b1bec6" d="M 11.222656 48.703125 C 11.070312 48.703125 10.921875 48.652344 10.796875 48.550781 C 10.589844 48.382812 10.5 48.113281 10.5625 47.851562 L 10.980469 46.117188 L 9.945312 46.117188 C 6.605469 46.117188 3.890625 43.375 3.890625 40.003906 C 3.890625 38.371094 4.519531 36.835938 5.664062 35.683594 C 6.808594 34.527344 8.328125 33.890625 9.945312 33.890625 L 36.394531 33.890625 C 39.734375 33.890625 42.449219 36.632812 42.449219 40.003906 C 42.449219 41.636719 41.820312 43.171875 40.675781 44.328125 C 39.53125 45.480469 38.011719 46.117188 36.394531 46.117188 L 15.808594 46.117188 L 11.527344 48.632812 C 11.429688 48.679688 11.324219 48.707031 11.222656 48.707031 Z M 9.945312 34.105469 C 8.386719 34.105469 6.917969 34.71875 5.8125 35.832031 C 4.710938 36.949219 4.101562 38.429688 4.101562 40.003906 C 4.101562 43.257812 6.722656 45.902344 9.945312 45.902344 L 11.25 45.902344 L 10.765625 47.902344 C 10.722656 48.085938 10.785156 48.265625 10.929688 48.382812 C 11.074219 48.5 11.261719 48.523438 11.429688 48.441406 L 15.75 45.902344 L 36.394531 45.902344 C 37.953125 45.902344 39.421875 45.289062 40.527344 44.175781 C 41.628906 43.0625 42.238281 41.582031 42.238281 40.003906 C 42.238281 36.753906 39.617188 34.105469 36.394531 34.105469 Z M 9.945312 34.105469 " fill-opacity="1" fill-rule="nonzero"/></g><g mask="url(#b505934ef0)"><g transform="matrix(1, 0, 0, 1, 7, 36)"><g clip-path="url(#30eceeb222)"><g clip-path="url(#65bb3e79fb)"><path fill="#b1bec6" d="M 6.136719 3.921875 C 6.136719 5.507812 4.863281 6.792969 3.292969 6.792969 C 1.722656 6.792969 0.449219 5.507812 0.449219 3.921875 C 0.449219 2.335938 1.722656 1.050781 3.292969 1.050781 C 4.863281 1.050781 6.136719 2.335938 6.136719 3.921875 Z M 6.136719 3.921875 " fill-opacity="1" fill-rule="nonzero"/></g><g clip-path="url(#1560001b74)"><path fill="#b1bec6" d="M 29.65625 2.484375 C 29.65625 2.679688 29.578125 2.851562 29.453125 2.980469 C 29.328125 3.105469 29.15625 3.183594 28.964844 3.183594 L 10.484375 3.183594 C 10.101562 3.183594 9.792969 2.871094 9.792969 2.484375 C 9.792969 2.292969 9.871094 2.117188 9.992188 1.992188 C 10.121094 1.867188 10.292969 1.789062 10.484375 1.789062 L 28.964844 1.789062 C 29.347656 1.789062 29.65625 2.101562 29.65625 2.484375 Z M 29.65625 2.484375 " fill-opacity="1" fill-rule="nonzero"/></g><g clip-path="url(#5a0695e248)"><path fill="#b1bec6" d="M 29.65625 5.355469 C 29.65625 5.550781 29.578125 5.722656 29.453125 5.851562 C 29.328125 5.976562 29.15625 6.054688 28.964844 6.054688 L 10.484375 6.054688 C 10.101562 6.054688 9.792969 5.742188 9.792969 5.355469 C 9.792969 5.164062 9.871094 4.988281 9.992188 4.863281 C 10.121094 4.738281 10.292969 4.660156 10.484375 4.660156 L 28.964844 4.660156 C 29.347656 4.660156 29.65625 4.972656 29.65625 5.355469 Z M 29.65625 5.355469 " fill-opacity="1" fill-rule="nonzero"/></g></g></g></g><path fill="#b1bec6" d="M 10.292969 42.898438 C 8.664062 42.898438 7.34375 41.5625 7.34375 39.921875 C 7.34375 38.28125 8.664062 36.945312 10.292969 36.945312 C 11.917969 36.945312 13.242188 38.28125 13.242188 39.921875 C 13.242188 41.5625 11.917969 42.898438 10.292969 42.898438 Z M 10.292969 37.160156 C 8.78125 37.160156 7.554688 38.398438 7.554688 39.921875 C 7.554688 41.445312 8.78125 42.683594 10.292969 42.683594 C 11.800781 42.683594 13.03125 41.445312 13.03125 39.921875 C 13.03125 38.398438 11.800781 37.160156 10.292969 37.160156 Z M 10.292969 37.160156 " fill-opacity="1" fill-rule="nonzero"/><path fill="#b1bec6" d="M 35.964844 39.289062 L 17.484375 39.289062 C 17.042969 39.289062 16.6875 38.929688 16.6875 38.484375 C 16.6875 38.273438 16.769531 38.070312 16.917969 37.917969 C 17.070312 37.765625 17.269531 37.683594 17.484375 37.683594 L 35.964844 37.683594 C 36.40625 37.683594 36.761719 38.042969 36.761719 38.484375 C 36.761719 38.699219 36.679688 38.902344 36.53125 39.054688 C 36.378906 39.207031 36.179688 39.289062 35.964844 39.289062 Z M 17.484375 37.894531 C 17.328125 37.894531 17.179688 37.957031 17.070312 38.070312 C 16.957031 38.179688 16.898438 38.328125 16.898438 38.484375 C 16.898438 38.8125 17.160156 39.074219 17.484375 39.074219 L 35.964844 39.074219 C 36.121094 39.074219 36.269531 39.015625 36.378906 38.902344 C 36.492188 38.792969 36.550781 38.644531 36.550781 38.484375 C 36.550781 38.160156 36.289062 37.894531 35.964844 37.894531 Z M 17.484375 37.894531 " fill-opacity="1" fill-rule="nonzero"/><path fill="#b1bec6" d="M 35.964844 42.160156 L 17.484375 42.160156 C 17.042969 42.160156 16.6875 41.800781 16.6875 41.355469 C 16.6875 41.144531 16.769531 40.941406 16.917969 40.789062 C 17.070312 40.636719 17.269531 40.554688 17.484375 40.554688 L 35.964844 40.554688 C 36.40625 40.554688 36.761719 40.914062 36.761719 41.355469 C 36.761719 41.570312 36.679688 41.773438 36.53125 41.925781 C 36.378906 42.078125 36.179688 42.160156 35.964844 42.160156 Z M 17.484375 40.765625 C 17.328125 40.765625 17.179688 40.828125 17.070312 40.941406 C 16.957031 41.050781 16.898438 41.199219 16.898438 41.355469 C 16.898438 41.683594 17.160156 41.945312 17.484375 41.945312 L 35.964844 41.945312 C 36.121094 41.945312 36.269531 41.886719 36.378906 41.773438 C 36.492188 41.664062 36.550781 41.515625 36.550781 41.355469 C 36.550781 41.03125 36.289062 40.765625 35.964844 40.765625 Z M 17.484375 40.765625 " fill-opacity="1" fill-rule="nonzero"/><g clip-path="url(#2c7012adac)"><path fill="#b1bec6" d="M 44.308594 34.90625 C 44.28125 34.90625 44.25 34.894531 44.230469 34.871094 C 44.191406 34.828125 44.191406 34.761719 44.234375 34.71875 C 44.328125 34.628906 44.382812 34.507812 44.382812 34.378906 C 44.382812 34.339844 44.378906 34.300781 44.367188 34.261719 L 44.210938 33.609375 C 44.195312 33.550781 44.230469 33.496094 44.289062 33.480469 C 44.347656 33.464844 44.402344 33.5 44.417969 33.558594 L 44.574219 34.210938 C 44.585938 34.265625 44.59375 34.324219 44.59375 34.378906 C 44.59375 34.566406 44.519531 34.742188 44.378906 34.875 C 44.359375 34.894531 44.332031 34.902344 44.308594 34.902344 Z M 43.164062 34.714844 C 43.144531 34.714844 43.125 34.710938 43.109375 34.699219 L 42.011719 34.054688 C 41.960938 34.023438 41.941406 33.957031 41.972656 33.90625 C 42 33.855469 42.066406 33.839844 42.117188 33.867188 L 43.214844 34.515625 C 43.265625 34.542969 43.285156 34.609375 43.253906 34.660156 C 43.234375 34.695312 43.199219 34.714844 43.164062 34.714844 Z M 40.960938 33.421875 C 40.945312 33.421875 40.925781 33.417969 40.910156 33.40625 L 39.808594 32.761719 C 39.757812 32.730469 39.742188 32.664062 39.769531 32.613281 C 39.800781 32.5625 39.867188 32.546875 39.917969 32.578125 L 41.015625 33.222656 C 41.066406 33.253906 41.082031 33.316406 41.054688 33.367188 C 41.035156 33.402344 41 33.421875 40.960938 33.421875 Z M 45.1875 32.476562 L 44.058594 32.476562 C 44 32.476562 43.949219 32.429688 43.949219 32.371094 C 43.949219 32.3125 44 32.265625 44.058594 32.265625 L 45.1875 32.265625 C 45.234375 32.265625 45.28125 32.261719 45.328125 32.261719 C 45.328125 32.261719 45.328125 32.261719 45.332031 32.261719 C 45.386719 32.261719 45.433594 32.308594 45.4375 32.367188 C 45.4375 32.425781 45.390625 32.476562 45.332031 32.476562 C 45.285156 32.476562 45.238281 32.476562 45.1875 32.476562 Z M 38.667969 32.476562 L 37.394531 32.476562 C 37.335938 32.476562 37.289062 32.429688 37.289062 32.371094 C 37.289062 32.3125 37.335938 32.265625 37.394531 32.265625 L 38.667969 32.265625 C 38.726562 32.265625 38.773438 32.3125 38.773438 32.371094 C 38.773438 32.429688 38.726562 32.476562 38.667969 32.476562 Z M 36.121094 32.476562 L 34.851562 32.476562 C 34.792969 32.476562 34.742188 32.429688 34.742188 32.371094 C 34.742188 32.3125 34.792969 32.265625 34.851562 32.265625 L 36.121094 32.265625 C 36.179688 32.265625 36.230469 32.3125 36.230469 32.371094 C 36.230469 32.429688 36.179688 32.476562 36.121094 32.476562 Z M 33.578125 32.476562 L 32.304688 32.476562 C 32.246094 32.476562 32.199219 32.429688 32.199219 32.371094 C 32.199219 32.3125 32.246094 32.265625 32.304688 32.265625 L 33.578125 32.265625 C 33.636719 32.265625 33.683594 32.3125 33.683594 32.371094 C 33.683594 32.429688 33.636719 32.476562 33.578125 32.476562 Z M 31.03125 32.476562 L 29.757812 32.476562 C 29.699219 32.476562 29.652344 32.429688 29.652344 32.371094 C 29.652344 32.3125 29.699219 32.265625 29.757812 32.265625 L 31.03125 32.265625 C 31.089844 32.265625 31.136719 32.3125 31.136719 32.371094 C 31.136719 32.429688 31.089844 32.476562 31.03125 32.476562 Z M 28.484375 32.476562 L 27.210938 32.476562 C 27.15625 32.476562 27.105469 32.429688 27.105469 32.371094 C 27.105469 32.3125 27.15625 32.265625 27.210938 32.265625 L 28.484375 32.265625 C 28.542969 32.265625 28.589844 32.3125 28.589844 32.371094 C 28.589844 32.429688 28.542969 32.476562 28.484375 32.476562 Z M 25.941406 32.476562 L 24.667969 32.476562 C 24.609375 32.476562 24.5625 32.429688 24.5625 32.371094 C 24.5625 32.3125 24.609375 32.265625 24.667969 32.265625 L 25.941406 32.265625 C 26 32.265625 26.046875 32.3125 26.046875 32.371094 C 26.046875 32.429688 26 32.476562 25.941406 32.476562 Z M 23.394531 32.476562 L 22.121094 32.476562 C 22.0625 32.476562 22.015625 32.429688 22.015625 32.371094 C 22.015625 32.3125 22.0625 32.265625 22.121094 32.265625 L 23.394531 32.265625 C 23.453125 32.265625 23.5 32.3125 23.5 32.371094 C 23.5 32.429688 23.453125 32.476562 23.394531 32.476562 Z M 20.847656 32.476562 L 19.574219 32.476562 C 19.515625 32.476562 19.46875 32.429688 19.46875 32.371094 C 19.46875 32.3125 19.515625 32.265625 19.574219 32.265625 L 20.847656 32.265625 C 20.90625 32.265625 20.953125 32.3125 20.953125 32.371094 C 20.953125 32.429688 20.90625 32.476562 20.847656 32.476562 Z M 18.304688 32.460938 C 18.304688 32.460938 18.296875 32.460938 18.296875 32.460938 C 17.863281 32.429688 17.433594 32.351562 17.023438 32.230469 C 16.964844 32.210938 16.933594 32.152344 16.949219 32.097656 C 16.96875 32.039062 17.027344 32.007812 17.082031 32.023438 C 17.480469 32.140625 17.894531 32.21875 18.308594 32.25 C 18.367188 32.253906 18.414062 32.304688 18.410156 32.363281 C 18.40625 32.417969 18.359375 32.460938 18.304688 32.460938 Z M 46.589844 32.3125 C 46.542969 32.3125 46.496094 32.277344 46.484375 32.230469 C 46.472656 32.171875 46.507812 32.113281 46.566406 32.101562 C 46.96875 32 47.363281 31.859375 47.738281 31.675781 C 47.792969 31.648438 47.855469 31.671875 47.878906 31.722656 C 47.90625 31.777344 47.882812 31.839844 47.832031 31.867188 C 47.445312 32.058594 47.035156 32.207031 46.613281 32.308594 C 46.605469 32.308594 46.597656 32.3125 46.589844 32.3125 Z M 15.878906 31.738281 C 15.863281 31.738281 15.847656 31.734375 15.828125 31.726562 C 15.453125 31.515625 15.09375 31.265625 14.769531 30.980469 C 14.726562 30.941406 14.722656 30.875 14.757812 30.828125 C 14.796875 30.785156 14.863281 30.78125 14.910156 30.816406 C 15.222656 31.09375 15.566406 31.335938 15.933594 31.539062 C 15.984375 31.566406 16 31.632812 15.972656 31.683594 C 15.953125 31.71875 15.917969 31.738281 15.878906 31.738281 Z M 48.863281 31.199219 C 48.832031 31.199219 48.800781 31.183594 48.777344 31.15625 C 48.742188 31.109375 48.75 31.042969 48.796875 31.007812 C 49.125 30.746094 49.425781 30.453125 49.691406 30.128906 C 49.726562 30.082031 49.796875 30.078125 49.839844 30.113281 C 49.886719 30.152344 49.890625 30.21875 49.855469 30.265625 C 49.578125 30.601562 49.265625 30.90625 48.929688 31.175781 C 48.910156 31.191406 48.886719 31.199219 48.863281 31.199219 Z M 13.976562 30.066406 C 13.941406 30.066406 13.910156 30.050781 13.890625 30.023438 C 13.632812 29.675781 13.410156 29.296875 13.230469 28.902344 C 13.207031 28.847656 13.230469 28.785156 13.28125 28.761719 C 13.335938 28.734375 13.398438 28.757812 13.421875 28.8125 C 13.597656 29.195312 13.808594 29.558594 14.058594 29.894531 C 14.09375 29.941406 14.085938 30.011719 14.039062 30.046875 C 14.019531 30.058594 13.996094 30.066406 13.976562 30.066406 Z M 50.472656 29.234375 C 50.457031 29.234375 50.441406 29.230469 50.425781 29.222656 C 50.375 29.195312 50.351562 29.132812 50.378906 29.078125 C 50.570312 28.707031 50.722656 28.3125 50.832031 27.90625 C 50.847656 27.847656 50.90625 27.816406 50.964844 27.832031 C 51.019531 27.847656 51.054688 27.90625 51.039062 27.960938 C 50.925781 28.382812 50.769531 28.789062 50.570312 29.179688 C 50.550781 29.214844 50.511719 29.234375 50.472656 29.234375 Z M 12.925781 27.746094 C 12.875 27.746094 12.832031 27.710938 12.820312 27.664062 C 12.730469 27.238281 12.683594 26.800781 12.683594 26.363281 C 12.683594 26.304688 12.734375 26.257812 12.792969 26.257812 C 12.851562 26.257812 12.898438 26.304688 12.898438 26.363281 C 12.898438 26.789062 12.941406 27.207031 13.03125 27.617188 C 13.042969 27.675781 13.003906 27.730469 12.949219 27.746094 C 12.941406 27.746094 12.933594 27.746094 12.925781 27.746094 Z M 51.132812 26.773438 C 51.132812 26.773438 51.128906 26.773438 51.128906 26.773438 C 51.070312 26.773438 51.023438 26.722656 51.027344 26.664062 C 51.03125 26.566406 51.035156 26.464844 51.035156 26.363281 C 51.035156 26.042969 51.007812 25.71875 50.957031 25.40625 C 50.949219 25.347656 50.988281 25.292969 51.042969 25.28125 C 51.101562 25.273438 51.15625 25.3125 51.167969 25.371094 C 51.21875 25.695312 51.246094 26.03125 51.246094 26.363281 C 51.246094 26.46875 51.242188 26.570312 51.238281 26.671875 C 51.234375 26.730469 51.1875 26.773438 51.132812 26.773438 Z M 12.859375 25.570312 C 12.851562 25.570312 12.847656 25.570312 12.84375 25.570312 C 12.785156 25.558594 12.746094 25.503906 12.753906 25.445312 C 12.816406 25.015625 12.929688 24.589844 13.082031 24.183594 C 13.101562 24.128906 13.164062 24.101562 13.21875 24.121094 C 13.273438 24.144531 13.300781 24.207031 13.28125 24.261719 C 13.132812 24.652344 13.023438 25.0625 12.964844 25.476562 C 12.957031 25.53125 12.910156 25.570312 12.859375 25.570312 Z M 50.722656 24.257812 C 50.679688 24.257812 50.640625 24.234375 50.625 24.191406 C 50.472656 23.800781 50.277344 23.425781 50.042969 23.078125 C 50.011719 23.027344 50.023438 22.960938 50.070312 22.929688 C 50.121094 22.894531 50.1875 22.910156 50.21875 22.957031 C 50.460938 23.320312 50.664062 23.707031 50.820312 24.113281 C 50.84375 24.167969 50.816406 24.230469 50.761719 24.25 C 50.75 24.257812 50.738281 24.257812 50.722656 24.257812 Z M 13.757812 23.1875 C 13.738281 23.1875 13.71875 23.183594 13.699219 23.171875 C 13.652344 23.136719 13.636719 23.074219 13.671875 23.023438 C 13.90625 22.660156 14.179688 22.320312 14.488281 22.011719 C 14.53125 21.972656 14.597656 21.972656 14.640625 22.015625 C 14.679688 22.054688 14.679688 22.125 14.636719 22.164062 C 14.339844 22.460938 14.074219 22.789062 13.847656 23.140625 C 13.828125 23.171875 13.792969 23.1875 13.757812 23.1875 Z M 49.3125 22.144531 C 49.289062 22.144531 49.261719 22.132812 49.242188 22.113281 C 48.941406 21.820312 48.609375 21.5625 48.253906 21.339844 C 48.203125 21.308594 48.1875 21.246094 48.21875 21.195312 C 48.25 21.144531 48.316406 21.128906 48.367188 21.160156 C 48.730469 21.386719 49.078125 21.65625 49.386719 21.957031 C 49.429688 22 49.429688 22.066406 49.390625 22.109375 C 49.371094 22.132812 49.339844 22.144531 49.3125 22.144531 Z M 15.558594 21.398438 C 15.523438 21.398438 15.488281 21.378906 15.46875 21.347656 C 15.4375 21.296875 15.449219 21.230469 15.5 21.199219 C 15.867188 20.964844 16.253906 20.773438 16.660156 20.621094 C 16.714844 20.601562 16.777344 20.632812 16.796875 20.6875 C 16.816406 20.742188 16.789062 20.804688 16.734375 20.824219 C 16.34375 20.96875 15.964844 21.15625 15.613281 21.382812 C 15.597656 21.394531 15.578125 21.398438 15.558594 21.398438 Z M 47.164062 20.804688 C 47.152344 20.804688 47.140625 20.800781 47.128906 20.796875 C 46.738281 20.660156 46.328125 20.5625 45.914062 20.511719 C 45.855469 20.503906 45.816406 20.449219 45.824219 20.390625 C 45.828125 20.332031 45.882812 20.292969 45.941406 20.296875 C 46.371094 20.351562 46.792969 20.453125 47.199219 20.597656 C 47.253906 20.617188 47.285156 20.675781 47.265625 20.734375 C 47.25 20.777344 47.207031 20.804688 47.164062 20.804688 Z M 17.929688 20.519531 C 17.878906 20.519531 17.832031 20.480469 17.824219 20.429688 C 17.816406 20.371094 17.855469 20.316406 17.914062 20.308594 C 18.1875 20.269531 18.464844 20.25 18.742188 20.25 L 19.199219 20.25 C 19.257812 20.25 19.304688 20.300781 19.304688 20.359375 C 19.304688 20.417969 19.257812 20.464844 19.199219 20.464844 L 18.742188 20.464844 C 18.476562 20.464844 18.207031 20.484375 17.945312 20.519531 C 17.9375 20.519531 17.933594 20.519531 17.929688 20.519531 Z M 44.65625 20.464844 L 43.382812 20.464844 C 43.324219 20.464844 43.277344 20.417969 43.277344 20.359375 C 43.277344 20.300781 43.324219 20.25 43.382812 20.25 L 44.65625 20.25 C 44.714844 20.25 44.761719 20.300781 44.761719 20.359375 C 44.761719 20.417969 44.714844 20.464844 44.65625 20.464844 Z M 42.109375 20.464844 L 40.839844 20.464844 C 40.78125 20.464844 40.730469 20.417969 40.730469 20.359375 C 40.730469 20.300781 40.78125 20.25 40.839844 20.25 L 42.109375 20.25 C 42.167969 20.25 42.21875 20.300781 42.21875 20.359375 C 42.21875 20.417969 42.167969 20.464844 42.109375 20.464844 Z M 39.566406 20.464844 L 38.292969 20.464844 C 38.234375 20.464844 38.1875 20.417969 38.1875 20.359375 C 38.1875 20.300781 38.234375 20.25 38.292969 20.25 L 39.566406 20.25 C 39.625 20.25 39.671875 20.300781 39.671875 20.359375 C 39.671875 20.417969 39.625 20.464844 39.566406 20.464844 Z M 37.019531 20.464844 L 35.746094 20.464844 C 35.6875 20.464844 35.640625 20.417969 35.640625 20.359375 C 35.640625 20.300781 35.6875 20.25 35.746094 20.25 L 37.019531 20.25 C 37.078125 20.25 37.125 20.300781 37.125 20.359375 C 37.125 20.417969 37.078125 20.464844 37.019531 20.464844 Z M 34.472656 20.464844 L 33.199219 20.464844 C 33.144531 20.464844 33.09375 20.417969 33.09375 20.359375 C 33.09375 20.300781 33.144531 20.25 33.199219 20.25 L 34.472656 20.25 C 34.53125 20.25 34.578125 20.300781 34.578125 20.359375 C 34.578125 20.417969 34.53125 20.464844 34.472656 20.464844 Z M 31.929688 20.464844 L 30.65625 20.464844 C 30.597656 20.464844 30.550781 20.417969 30.550781 20.359375 C 30.550781 20.300781 30.597656 20.25 30.65625 20.25 L 31.929688 20.25 C 31.988281 20.25 32.035156 20.300781 32.035156 20.359375 C 32.035156 20.417969 31.988281 20.464844 31.929688 20.464844 Z M 29.382812 20.464844 L 28.109375 20.464844 C 28.050781 20.464844 28.003906 20.417969 28.003906 20.359375 C 28.003906 20.300781 28.050781 20.25 28.109375 20.25 L 29.382812 20.25 C 29.441406 20.25 29.488281 20.300781 29.488281 20.359375 C 29.488281 20.417969 29.441406 20.464844 29.382812 20.464844 Z M 26.835938 20.464844 L 25.5625 20.464844 C 25.503906 20.464844 25.457031 20.417969 25.457031 20.359375 C 25.457031 20.300781 25.503906 20.25 25.5625 20.25 L 26.835938 20.25 C 26.894531 20.25 26.941406 20.300781 26.941406 20.359375 C 26.941406 20.417969 26.894531 20.464844 26.835938 20.464844 Z M 24.289062 20.464844 L 23.019531 20.464844 C 22.960938 20.464844 22.910156 20.417969 22.910156 20.359375 C 22.910156 20.300781 22.960938 20.25 23.019531 20.25 L 24.289062 20.25 C 24.347656 20.25 24.398438 20.300781 24.398438 20.359375 C 24.398438 20.417969 24.347656 20.464844 24.289062 20.464844 Z M 21.746094 20.464844 L 20.472656 20.464844 C 20.414062 20.464844 20.367188 20.417969 20.367188 20.359375 C 20.367188 20.300781 20.414062 20.25 20.472656 20.25 L 21.746094 20.25 C 21.804688 20.25 21.851562 20.300781 21.851562 20.359375 C 21.851562 20.417969 21.804688 20.464844 21.746094 20.464844 Z M 21.746094 20.464844 " fill-opacity="1" fill-rule="nonzero"/></g><g mask="url(#11006266a7)"><g transform="matrix(1, 0, 0, 1, 18, 23)"><g clip-path="url(#939cc62afb)"><g clip-path="url(#886e60e46a)"><path fill="#b1bec6" d="M 0.480469 1.847656 C 0.480469 2.039062 0.554688 2.214844 0.679688 2.339844 C 0.804688 2.464844 0.980469 2.542969 1.167969 2.542969 L 19.652344 2.542969 C 20.035156 2.542969 20.34375 2.230469 20.34375 1.847656 C 20.34375 1.65625 20.265625 1.480469 20.140625 1.355469 C 20.015625 1.226562 19.84375 1.148438 19.652344 1.148438 L 1.167969 1.148438 C 0.789062 1.148438 0.480469 1.460938 0.480469 1.847656 Z M 0.480469 1.847656 " fill-opacity="1" fill-rule="nonzero"/></g><g clip-path="url(#87e4e170f4)"><path fill="#b1bec6" d="M 0.480469 4.71875 C 0.480469 4.910156 0.554688 5.085938 0.679688 5.210938 C 0.804688 5.335938 0.980469 5.414062 1.167969 5.414062 L 19.652344 5.414062 C 20.035156 5.414062 20.34375 5.101562 20.34375 4.71875 C 20.34375 4.527344 20.265625 4.351562 20.140625 4.226562 C 20.015625 4.097656 19.84375 4.019531 19.652344 4.019531 L 1.167969 4.019531 C 0.789062 4.019531 0.480469 4.332031 0.480469 4.71875 Z M 0.480469 4.71875 " fill-opacity="1" fill-rule="nonzero"/></g></g></g></g><path fill="#b1bec6" d="M 37.652344 25.652344 L 19.167969 25.652344 C 18.957031 25.652344 18.757812 25.566406 18.605469 25.414062 C 18.457031 25.261719 18.375 25.0625 18.375 24.847656 C 18.375 24.402344 18.730469 24.042969 19.167969 24.042969 L 37.652344 24.042969 C 37.867188 24.042969 38.066406 24.125 38.214844 24.277344 C 38.367188 24.429688 38.449219 24.632812 38.449219 24.847656 C 38.449219 25.289062 38.09375 25.652344 37.652344 25.652344 Z M 19.167969 24.257812 C 18.847656 24.257812 18.585938 24.519531 18.585938 24.847656 C 18.585938 25.003906 18.644531 25.152344 18.757812 25.265625 C 18.867188 25.375 19.015625 25.4375 19.167969 25.4375 L 37.652344 25.4375 C 37.976562 25.4375 38.238281 25.171875 38.238281 24.847656 C 38.238281 24.6875 38.175781 24.539062 38.066406 24.429688 C 37.957031 24.316406 37.808594 24.257812 37.652344 24.257812 Z M 19.167969 24.257812 " fill-opacity="1" fill-rule="nonzero"/><path fill="#b1bec6" d="M 37.652344 28.523438 L 19.167969 28.523438 C 18.957031 28.523438 18.757812 28.4375 18.605469 28.289062 C 18.457031 28.132812 18.375 27.933594 18.375 27.71875 C 18.375 27.273438 18.730469 26.914062 19.167969 26.914062 L 37.652344 26.914062 C 37.867188 26.914062 38.066406 26.996094 38.214844 27.148438 C 38.367188 27.300781 38.449219 27.503906 38.449219 27.71875 C 38.449219 28.160156 38.09375 28.523438 37.652344 28.523438 Z M 19.167969 27.128906 C 18.847656 27.128906 18.585938 27.394531 18.585938 27.71875 C 18.585938 27.875 18.644531 28.023438 18.757812 28.136719 C 18.867188 28.246094 19.015625 28.308594 19.167969 28.308594 L 37.652344 28.308594 C 37.976562 28.308594 38.238281 28.042969 38.238281 27.71875 C 38.238281 27.558594 38.175781 27.410156 38.066406 27.300781 C 37.957031 27.1875 37.808594 27.128906 37.652344 27.128906 Z M 19.167969 27.128906 " fill-opacity="1" fill-rule="nonzero"/><g mask="url(#3d32b9b203)"><g transform="matrix(1, 0, 0, 1, 40, 22)"><g clip-path="url(#a2367e891e)"><g clip-path="url(#314dc3881e)"><path fill="#b1bec6" d="M 8.511719 3.636719 C 8.476562 3.394531 8.421875 3.160156 8.347656 2.933594 C 8.339844 2.914062 8.332031 2.890625 8.324219 2.867188 C 8.027344 2.03125 7.46875 1.328125 6.742188 0.855469 C 6.171875 0.484375 5.5 0.257812 4.78125 0.226562 C 4.722656 0.226562 4.667969 0.222656 4.609375 0.222656 C 4.226562 0.222656 3.855469 0.28125 3.507812 0.382812 C 3.496094 0.386719 3.484375 0.390625 3.472656 0.390625 C 2.847656 0.582031 2.289062 0.921875 1.839844 1.375 C 1.75 1.460938 1.667969 1.550781 1.589844 1.648438 C 1.015625 2.339844 0.671875 3.226562 0.671875 4.199219 C 0.671875 5.167969 1.011719 6.046875 1.574219 6.734375 C 1.820312 7.035156 2.113281 7.296875 2.433594 7.511719 C 2.847656 7.789062 3.320312 7.992188 3.824219 8.09375 C 4.078125 8.148438 4.339844 8.171875 4.609375 8.171875 C 4.667969 8.171875 4.722656 8.171875 4.78125 8.167969 C 4.8125 8.167969 4.847656 8.164062 4.878906 8.164062 C 5.167969 8.144531 5.449219 8.09375 5.714844 8.015625 C 6.09375 7.902344 6.445312 7.738281 6.769531 7.523438 C 6.957031 7.398438 7.132812 7.261719 7.296875 7.105469 C 7.445312 6.964844 7.582031 6.816406 7.707031 6.652344 C 8.125 6.117188 8.410156 5.46875 8.507812 4.761719 C 8.535156 4.578125 8.550781 4.390625 8.550781 4.199219 C 8.550781 4.007812 8.535156 3.820312 8.507812 3.636719 Z M 6.140625 4.605469 C 6.140625 5.203125 6.007812 5.664062 5.742188 5.988281 C 5.507812 6.277344 5.1875 6.4375 4.78125 6.46875 C 4.726562 6.476562 4.671875 6.476562 4.617188 6.476562 L 4.582031 6.476562 C 4.109375 6.46875 3.742188 6.304688 3.480469 5.988281 C 3.214844 5.660156 3.078125 5.199219 3.078125 4.605469 L 3.078125 3.789062 C 3.078125 3.46875 3.117188 3.191406 3.195312 2.949219 C 3.203125 2.921875 3.214844 2.894531 3.222656 2.867188 C 3.285156 2.699219 3.367188 2.550781 3.46875 2.421875 C 3.472656 2.417969 3.476562 2.414062 3.480469 2.410156 C 3.574219 2.292969 3.6875 2.195312 3.816406 2.121094 C 4.035156 1.988281 4.300781 1.921875 4.609375 1.921875 L 4.613281 1.921875 C 4.667969 1.921875 4.726562 1.925781 4.78125 1.929688 C 5.1875 1.964844 5.507812 2.125 5.742188 2.414062 C 5.847656 2.542969 5.933594 2.695312 5.996094 2.867188 C 6.003906 2.890625 6.011719 2.914062 6.019531 2.9375 C 6.101562 3.183594 6.144531 3.46875 6.144531 3.796875 L 6.144531 4.605469 Z M 6.140625 4.605469 " fill-opacity="1" fill-rule="nonzero"/></g><path fill="#b1bec6" d="M 5.125 3.664062 L 5.125 4.757812 C 5.121094 5.078125 5.082031 5.3125 5 5.460938 C 4.914062 5.609375 4.789062 5.683594 4.613281 5.683594 L 4.609375 5.683594 C 4.433594 5.683594 4.304688 5.605469 4.222656 5.453125 C 4.140625 5.300781 4.097656 5.058594 4.097656 4.730469 L 4.097656 3.597656 C 4.105469 3.300781 4.148438 3.078125 4.226562 2.933594 C 4.308594 2.785156 4.433594 2.714844 4.609375 2.714844 C 4.789062 2.714844 4.917969 2.792969 5 2.949219 C 5.082031 3.105469 5.125 3.34375 5.125 3.664062 Z M 5.125 3.664062 " fill-opacity="1" fill-rule="nonzero"/></g></g></g><path fill="#b1bec6" d="M 44.613281 30.28125 C 44.335938 30.28125 44.066406 30.253906 43.804688 30.199219 C 43.292969 30.09375 42.8125 29.894531 42.378906 29.601562 C 42.046875 29.378906 41.746094 29.109375 41.496094 28.800781 C 40.894531 28.070312 40.566406 27.148438 40.566406 26.199219 C 40.566406 25.25 40.902344 24.3125 41.507812 23.578125 C 41.589844 23.480469 41.675781 23.386719 41.765625 23.296875 C 42.234375 22.828125 42.8125 22.480469 43.441406 22.289062 L 43.453125 22.285156 C 43.464844 22.285156 43.472656 22.28125 43.484375 22.277344 C 43.84375 22.171875 44.226562 22.117188 44.613281 22.117188 C 44.675781 22.117188 44.734375 22.117188 44.789062 22.121094 C 45.503906 22.152344 46.199219 22.375 46.804688 22.765625 C 47.550781 23.257812 48.128906 23.988281 48.425781 24.828125 C 48.433594 24.851562 48.441406 24.878906 48.449219 24.902344 C 48.527344 25.132812 48.582031 25.375 48.617188 25.621094 C 48.644531 25.8125 48.65625 26.007812 48.65625 26.199219 C 48.65625 26.390625 48.644531 26.585938 48.617188 26.777344 C 48.519531 27.484375 48.230469 28.15625 47.792969 28.71875 C 47.664062 28.882812 47.523438 29.039062 47.371094 29.183594 C 47.203125 29.339844 47.019531 29.484375 46.828125 29.613281 C 46.492188 29.835938 46.128906 30.003906 45.746094 30.117188 C 45.46875 30.199219 45.179688 30.25 44.886719 30.269531 C 44.855469 30.273438 44.820312 30.273438 44.785156 30.277344 C 44.730469 30.277344 44.671875 30.28125 44.613281 30.28125 Z M 44.613281 22.332031 C 44.246094 22.332031 43.886719 22.382812 43.539062 22.484375 C 43.527344 22.488281 43.523438 22.488281 43.515625 22.492188 L 43.503906 22.496094 C 42.90625 22.675781 42.359375 23.007812 41.914062 23.449219 C 41.828125 23.535156 41.746094 23.625 41.671875 23.71875 C 41.09375 24.410156 40.777344 25.292969 40.777344 26.199219 C 40.777344 27.105469 41.089844 27.972656 41.65625 28.664062 C 41.898438 28.957031 42.179688 29.210938 42.496094 29.425781 C 42.90625 29.699219 43.363281 29.890625 43.847656 29.988281 C 44.09375 30.042969 44.351562 30.066406 44.613281 30.066406 C 44.667969 30.066406 44.722656 30.066406 44.777344 30.0625 C 44.808594 30.0625 44.839844 30.058594 44.871094 30.058594 C 45.148438 30.039062 45.421875 29.988281 45.6875 29.914062 C 46.046875 29.804688 46.394531 29.644531 46.710938 29.433594 C 46.894531 29.3125 47.066406 29.175781 47.222656 29.027344 C 47.371094 28.890625 47.503906 28.742188 47.625 28.589844 C 48.042969 28.054688 48.3125 27.417969 48.40625 26.75 C 48.433594 26.566406 48.445312 26.378906 48.445312 26.199219 C 48.445312 26.019531 48.429688 25.832031 48.40625 25.652344 C 48.375 25.417969 48.320312 25.191406 48.246094 24.96875 C 48.238281 24.949219 48.230469 24.925781 48.222656 24.90625 C 47.941406 24.105469 47.398438 23.410156 46.6875 22.945312 C 46.117188 22.574219 45.457031 22.363281 44.777344 22.335938 C 44.726562 22.332031 44.671875 22.332031 44.613281 22.332031 Z M 44.617188 28.585938 L 44.582031 28.585938 C 44.078125 28.574219 43.679688 28.398438 43.398438 28.054688 C 43.117188 27.710938 42.972656 27.222656 42.972656 26.605469 L 42.972656 25.789062 C 42.972656 25.460938 43.015625 25.167969 43.09375 24.917969 C 43.101562 24.886719 43.113281 24.859375 43.121094 24.832031 C 43.1875 24.652344 43.277344 24.492188 43.386719 24.355469 L 43.398438 24.34375 C 43.5 24.214844 43.621094 24.109375 43.761719 24.027344 C 43.996094 23.886719 44.28125 23.816406 44.609375 23.816406 C 44.667969 23.816406 44.726562 23.816406 44.789062 23.820312 C 45.222656 23.859375 45.570312 24.035156 45.820312 24.34375 C 45.933594 24.480469 46.027344 24.644531 46.09375 24.828125 C 46.101562 24.851562 46.113281 24.875 46.121094 24.902344 C 46.207031 25.15625 46.246094 25.457031 46.246094 25.796875 L 46.246094 26.605469 C 46.246094 27.226562 46.105469 27.714844 45.824219 28.058594 C 45.570312 28.367188 45.222656 28.542969 44.789062 28.578125 C 44.734375 28.582031 44.675781 28.585938 44.613281 28.585938 Z M 43.5625 24.476562 C 43.558594 24.480469 43.554688 24.484375 43.550781 24.488281 C 43.457031 24.609375 43.378906 24.75 43.320312 24.90625 C 43.3125 24.929688 43.304688 24.953125 43.296875 24.980469 C 43.222656 25.210938 43.1875 25.484375 43.183594 25.789062 L 43.183594 26.605469 C 43.183594 27.171875 43.3125 27.613281 43.5625 27.917969 C 43.804688 28.214844 44.140625 28.363281 44.585938 28.371094 L 44.617188 28.371094 C 44.667969 28.371094 44.722656 28.367188 44.773438 28.363281 C 45.144531 28.332031 45.445312 28.183594 45.660156 27.921875 C 45.910156 27.617188 46.035156 27.175781 46.035156 26.605469 L 46.035156 25.796875 C 46.035156 25.480469 45.996094 25.203125 45.917969 24.96875 C 45.910156 24.949219 45.90625 24.925781 45.898438 24.90625 C 45.835938 24.742188 45.757812 24.597656 45.660156 24.480469 C 45.441406 24.21875 45.144531 24.066406 44.773438 24.035156 C 44.714844 24.03125 44.660156 24.027344 44.609375 24.027344 C 44.320312 24.027344 44.070312 24.089844 43.867188 24.210938 C 43.753906 24.277344 43.648438 24.367188 43.5625 24.476562 Z M 43.5625 24.476562 " fill-opacity="1" fill-rule="nonzero"/><path fill="#b1bec6" d="M 44.613281 27.792969 C 44.394531 27.789062 44.230469 27.691406 44.128906 27.507812 C 44.039062 27.335938 43.992188 27.082031 43.992188 26.730469 L 43.992188 25.597656 C 44 25.277344 44.046875 25.042969 44.136719 24.882812 C 44.234375 24.699219 44.398438 24.605469 44.609375 24.605469 C 44.828125 24.605469 44.996094 24.707031 45.09375 24.898438 C 45.1875 25.074219 45.230469 25.324219 45.230469 25.664062 L 45.230469 26.757812 C 45.230469 27.101562 45.183594 27.347656 45.089844 27.511719 C 44.992188 27.695312 44.828125 27.792969 44.617188 27.792969 Z M 44.609375 24.820312 C 44.472656 24.820312 44.382812 24.871094 44.320312 24.984375 C 44.25 25.113281 44.210938 25.320312 44.207031 25.597656 L 44.207031 26.730469 C 44.207031 27.039062 44.242188 27.265625 44.316406 27.402344 C 44.378906 27.523438 44.472656 27.578125 44.613281 27.578125 C 44.75 27.578125 44.84375 27.523438 44.90625 27.410156 C 44.980469 27.277344 45.019531 27.058594 45.019531 26.757812 L 45.019531 25.664062 C 45.019531 25.363281 44.980469 25.140625 44.910156 25 C 44.84375 24.878906 44.75 24.820312 44.609375 24.820312 Z M 44.609375 24.820312 " fill-opacity="1" fill-rule="nonzero"/><path fill="#b1bec6" d="M 43.980469 17.699219 C 43.574219 17.699219 43.246094 17.367188 43.246094 16.957031 C 43.246094 16.546875 43.574219 16.214844 43.980469 16.214844 C 44.386719 16.214844 44.71875 16.546875 44.71875 16.957031 C 44.71875 17.367188 44.386719 17.699219 43.980469 17.699219 Z M 43.980469 16.429688 C 43.691406 16.429688 43.457031 16.664062 43.457031 16.957031 C 43.457031 17.246094 43.691406 17.484375 43.980469 17.484375 C 44.269531 17.484375 44.503906 17.246094 44.503906 16.957031 C 44.503906 16.664062 44.269531 16.429688 43.980469 16.429688 Z M 43.980469 16.429688 " fill-opacity="1" fill-rule="nonzero"/><path fill="#b1bec6" d="M 9.503906 24.664062 C 9.007812 24.664062 8.605469 24.257812 8.605469 23.757812 C 8.605469 23.261719 9.007812 22.855469 9.503906 22.855469 C 9.996094 22.855469 10.398438 23.261719 10.398438 23.757812 C 10.398438 24.257812 9.996094 24.664062 9.503906 24.664062 Z M 9.503906 23.070312 C 9.125 23.070312 8.820312 23.378906 8.820312 23.757812 C 8.820312 24.140625 9.125 24.449219 9.503906 24.449219 C 9.878906 24.449219 10.1875 24.140625 10.1875 23.757812 C 10.1875 23.378906 9.878906 23.070312 9.503906 23.070312 Z M 9.503906 23.070312 " fill-opacity="1" fill-rule="nonzero"/><path fill="#b1bec6" d="M 45.863281 40.082031 C 45.113281 40.082031 44.503906 39.46875 44.503906 38.710938 C 44.503906 37.957031 45.113281 37.339844 45.863281 37.339844 C 46.613281 37.339844 47.222656 37.957031 47.222656 38.710938 C 47.222656 39.46875 46.613281 40.082031 45.863281 40.082031 Z M 45.863281 37.554688 C 45.230469 37.554688 44.71875 38.074219 44.71875 38.710938 C 44.71875 39.351562 45.230469 39.871094 45.863281 39.871094 C 46.496094 39.871094 47.011719 39.351562 47.011719 38.710938 C 47.011719 38.074219 46.496094 37.554688 45.863281 37.554688 Z M 45.863281 37.554688 " fill-opacity="1" fill-rule="nonzero"/><path fill="#b1bec6" d="M 18.742188 32.371094 C 17.101562 32.371094 15.613281 31.699219 14.535156 30.613281 C 13.457031 29.527344 12.792969 28.023438 12.792969 26.367188 C 12.792969 25.011719 13.234375 23.761719 13.984375 22.757812 L 10.394531 22.757812 C 9.019531 22.757812 7.773438 23.324219 6.871094 24.234375 C 5.96875 25.144531 5.410156 26.402344 5.410156 27.792969 C 5.410156 30.570312 7.644531 32.824219 10.394531 32.824219 L 10.5625 32.824219 C 11.78125 32.824219 12.898438 33.265625 13.761719 34 L 32.449219 34 C 33.316406 33.265625 34.433594 32.824219 35.652344 32.824219 L 40.128906 32.824219 L 39.355469 32.371094 Z M 9.503906 24.554688 C 9.066406 24.554688 8.714844 24.199219 8.714844 23.757812 C 8.714844 23.320312 9.066406 22.960938 9.503906 22.960938 C 9.9375 22.960938 10.292969 23.320312 10.292969 23.757812 C 10.292969 24.199219 9.9375 24.554688 9.503906 24.554688 Z M 9.503906 24.554688 " fill-opacity="0.25" fill-rule="nonzero"/><path fill="#b1bec6" d="M 45.191406 32.371094 L 44.023438 32.371094 L 44.132812 32.824219 L 44.738281 32.824219 C 45.898438 32.824219 46.960938 32.425781 47.808594 31.757812 C 47.019531 32.152344 46.128906 32.371094 45.1875 32.371094 Z M 45.191406 32.371094 " fill-opacity="0.25" fill-rule="nonzero"/><g clip-path="url(#16f8fe970a)"><path fill="#b1bec6" d="M 44.738281 42.890625 L 41.613281 42.890625 C 41.339844 43.394531 41 43.851562 40.601562 44.25 C 39.523438 45.339844 38.035156 46.011719 36.394531 46.011719 L 15.78125 46.011719 L 11.476562 48.535156 C 11.039062 48.753906 10.546875 48.355469 10.664062 47.875 L 11.113281 46.011719 L 9.945312 46.011719 C 8.636719 46.011719 7.425781 45.582031 6.441406 44.859375 C 5.792969 45.707031 5.410156 46.769531 5.410156 47.921875 C 5.410156 50.703125 7.640625 52.957031 10.394531 52.957031 L 44.738281 52.957031 C 46.117188 52.957031 47.363281 52.394531 48.265625 51.484375 C 49.167969 50.570312 49.726562 49.3125 49.726562 47.921875 C 49.726562 45.144531 47.492188 42.890625 44.738281 42.890625 Z M 44.738281 42.890625 " fill-opacity="0.25" fill-rule="nonzero"/></g><g clip-path="url(#719178e326)"><path fill="#b1bec6" d="M 5.738281 8.746094 C 6.816406 7.660156 8.304688 6.988281 9.945312 6.988281 L 36.394531 6.988281 C 39.59375 6.988281 42.207031 9.539062 42.339844 12.738281 C 42.550781 12.707031 42.769531 12.695312 42.992188 12.695312 L 44.738281 12.695312 C 46.117188 12.695312 47.363281 12.128906 48.265625 11.21875 C 49.167969 10.308594 49.726562 9.050781 49.726562 7.660156 C 49.726562 4.882812 47.492188 2.628906 44.738281 2.628906 L 10.394531 2.628906 C 9.019531 2.628906 7.773438 3.191406 6.871094 4.101562 C 5.96875 5.011719 5.410156 6.269531 5.410156 7.660156 C 5.410156 8.097656 5.464844 8.523438 5.570312 8.925781 C 5.625 8.863281 5.679688 8.804688 5.738281 8.746094 Z M 5.738281 8.746094 " fill-opacity="0.25" fill-rule="nonzero"/></g><path fill="#b1bec6" d="M 22.113281 19 C 21.988281 19.484375 21.789062 19.941406 21.535156 20.359375 L 38.742188 20.359375 C 38.445312 19.871094 38.226562 19.324219 38.109375 18.746094 C 37.566406 18.910156 36.988281 19 36.394531 19 Z M 22.113281 19 " fill-opacity="0.25" fill-rule="nonzero"/></svg>