<svg width="25" height="25" viewBox="0 0 25 25" fill="none" xmlns="http://www.w3.org/2000/svg">
<g clip-path="url(#clip0_1074_1491)">
<path d="M12.9805 2.94425C16.1845 2.94425 16.5645 2.95625 17.8305 3.01425C21.0825 3.16225 22.6015 4.70525 22.7495 7.93325C22.8075 9.19825 22.8185 9.57825 22.8185 12.7823C22.8185 15.9873 22.8065 16.3663 22.7495 17.6313C22.6005 20.8563 21.0855 22.4022 17.8305 22.5502C16.5645 22.6082 16.1865 22.6203 12.9805 22.6203C9.77647 22.6203 9.39647 22.6082 8.13147 22.5502C4.87147 22.4012 3.36047 20.8513 3.21247 17.6303C3.15447 16.3653 3.14247 15.9862 3.14247 12.7812C3.14247 9.57725 3.15547 9.19825 3.21247 7.93225C3.36147 4.70525 4.87647 3.16125 8.13147 3.01325C9.39747 2.95625 9.77647 2.94425 12.9805 2.94425ZM12.9805 0.78125C9.72147 0.78125 9.31347 0.79525 8.03347 0.85325C3.67547 1.05325 1.25347 3.47125 1.05347 7.83325C0.994469 9.11425 0.980469 9.52225 0.980469 12.7812C0.980469 16.0402 0.994469 16.4493 1.05247 17.7292C1.25247 22.0872 3.67047 24.5092 8.03247 24.7092C9.31347 24.7673 9.72147 24.7812 12.9805 24.7812C16.2395 24.7812 16.6485 24.7673 17.9285 24.7092C22.2825 24.5092 24.7105 22.0912 24.9075 17.7292C24.9665 16.4493 24.9805 16.0402 24.9805 12.7812C24.9805 9.52225 24.9665 9.11425 24.9085 7.83425C24.7125 3.48025 22.2915 1.05425 17.9295 0.85425C16.6485 0.79525 16.2395 0.78125 12.9805 0.78125ZM12.9805 6.61925C9.57747 6.61925 6.81847 9.37825 6.81847 12.7812C6.81847 16.1842 9.57747 18.9443 12.9805 18.9443C16.3835 18.9443 19.1425 16.1853 19.1425 12.7812C19.1425 9.37825 16.3835 6.61925 12.9805 6.61925ZM12.9805 16.7812C10.7715 16.7812 8.98047 14.9913 8.98047 12.7812C8.98047 10.5723 10.7715 8.78125 12.9805 8.78125C15.1895 8.78125 16.9805 10.5723 16.9805 12.7812C16.9805 14.9913 15.1895 16.7812 12.9805 16.7812ZM19.3865 4.93625C18.5905 4.93625 17.9455 5.58125 17.9455 6.37625C17.9455 7.17125 18.5905 7.81625 19.3865 7.81625C20.1815 7.81625 20.8255 7.17125 20.8255 6.37625C20.8255 5.58125 20.1815 4.93625 19.3865 4.93625Z" fill="#548281"/>
</g>
<defs>
<clipPath id="clip0_1074_1491">
<rect width="24" height="24" fill="white" transform="translate(0.980469 0.78125)"/>
</clipPath>
</defs>
</svg>
