<svg width="25" height="25" viewBox="0 0 25 25" fill="none" xmlns="http://www.w3.org/2000/svg">
<g clip-path="url(#clip0_1074_1495)">
<path d="M19.9805 0.78125H5.98047C3.21947 0.78125 0.980469 3.02025 0.980469 5.78125V19.7812C0.980469 22.5422 3.21947 24.7812 5.98047 24.7812H19.9805C22.7425 24.7812 24.9805 22.5422 24.9805 19.7812V5.78125C24.9805 3.02025 22.7425 0.78125 19.9805 0.78125ZM8.98047 19.7812H5.98047V8.78125H8.98047V19.7812ZM7.48047 7.51325C6.51447 7.51325 5.73047 6.72325 5.73047 5.74925C5.73047 4.77525 6.51447 3.98525 7.48047 3.98525C8.44647 3.98525 9.23047 4.77525 9.23047 5.74925C9.23047 6.72325 8.44747 7.51325 7.48047 7.51325ZM20.9805 19.7812H17.9805V14.1772C17.9805 10.8092 13.9805 11.0642 13.9805 14.1772V19.7812H10.9805V8.78125H13.9805V10.5463C15.3765 7.96025 20.9805 7.76925 20.9805 13.0223V19.7812Z" fill="#548281"/>
</g>
<defs>
<clipPath id="clip0_1074_1495">
<rect width="24" height="24" fill="white" transform="translate(0.980469 0.78125)"/>
</clipPath>
</defs>
</svg>
